<svg version="1.1" viewBox="0.0 0.0 2500.0 577.0" fill="none" stroke="none" stroke-linecap="square" stroke-miterlimit="10" xmlns:xlink="http://www.w3.org/1999/xlink" xmlns="http://www.w3.org/2000/svg"><clipPath id="p.0"><path d="m0 0l2500.0 0l0 577.0l-2500.0 0l0 -577.0z" clip-rule="nonzero"/></clipPath><g clip-path="url(#p.0)"><path fill="#000000" fill-opacity="0.0" d="m0 0l2500.0 0l0 577.0l-2500.0 0z" fill-rule="evenodd"/><path fill="#000000" fill-opacity="0.0" d="m20.17485 12.944774l2459.6536 0l0 551.1181l-2459.6536 0z" fill-rule="evenodd"/><path fill="#ffffff" d="m417.77338 336.88254q0 14.8125 -3.796875 26.78125q-3.796875 11.96875 -10.109375 21.25q-6.3125 9.28125 -14.75 15.765625q-8.4375 6.46875 -17.359375 10.546875q-8.90625 4.0625 -18.125 6.0q-9.203125 1.9375 -17.421875 1.9375l-185.15627 0l0 -61.140625l185.15627 0q10.03125 0 15.234375 -5.515625q5.203125 -5.515625 5.203125 -15.625q0 -5.03125 -1.46875 -8.984375q-1.453125 -3.96875 -4.0 -6.703125q-2.53125 -2.734375 -6.296875 -4.265625q-3.765625 -1.53125 -8.671875 -1.53125l-105.89064 0q-12.296875 0 -26.453125 -4.359375q-14.15625 -4.359375 -26.421875 -14.171875q-12.25 -9.8125 -20.390625 -25.671875q-8.125 -15.874985 -8.125 -38.42186q0 -22.546875 8.125 -38.328125q8.140625 -15.78125 20.390625 -25.671875q12.25 -9.90625 26.40625 -14.265625q14.171875 -4.375 26.46875 -4.375l164.26564 0l0 61.140625l-164.26564 0q-9.796875 0 -15.03125 5.671875q-5.21875 5.671875 -5.21875 15.828125q0 10.265625 5.1875 15.703125q5.1875 5.4375 15.0625 5.4375l105.89064 0l0.453125 0q8.265625 0.1875 17.359375 2.2187347q9.09375 2.03125 18.09375 6.296875q9.015625 4.265625 17.234375 10.828125q8.21875 6.546875 14.609375 15.796875q6.40625 9.25 10.109375 21.15625q3.703125 11.90625 3.703125 26.671875zm265.09082 -125.60936l-101.46875 0l0 207.89061l-61.140625 0l0 -207.89061l-101.640594 0l0 -61.140625l264.24997 0l0 61.140625zm242.59668 104.124985l-160.46875 0l0 -61.48436l160.46875 0l0 61.48436zm20.71875 103.765625l-173.64062 0q-10.65625 0 -23.234375 -3.734375q-12.5625 -3.734375 -23.40625 -12.390625q-10.828125 -8.65625 -18.109375 -22.484375q-7.265625 -13.828125 -7.265625 -33.578125l0 -166.09373q0 -6.296875 2.34375 -11.90625q2.34375 -5.609375 6.484375 -9.859375q4.140625 -4.265625 9.796875 -6.625q5.65625 -2.359375 12.125 -2.359375l214.90625 0l0 61.140625l-184.51562 0l0 135.70311q0 5.90625 2.5625 8.484375q2.578125 2.5625 8.65625 2.5625l173.29688 0l0 61.140625zm253.22125 -103.765625l-160.46875 0l0 -61.48436l160.46875 0l0 61.48436zm20.71875 103.765625l-173.64062 0q-10.65625 0 -23.234314 -3.734375q-12.5625 -3.734375 -23.40625 -12.390625q-10.828125 -8.65625 -18.109375 -22.484375q-7.265625 -13.828125 -7.265625 -33.578125l0 -166.09373q0 -6.296875 2.34375 -11.90625q2.34375 -5.609375 6.484375 -9.859375q4.140625 -4.265625 9.796875 -6.625q5.65625 -2.359375 12.125 -2.359375l214.90619 0l0 61.140625l-184.51562 0l0 135.70311q0 5.90625 2.5625 8.484375q2.578125 2.5625 8.65625 2.5625l173.29688 0l0 61.140625zm339.98694 0l-61.484375 0l0 -130.21875l-67.5 118.734375q-4.0625 7.4375 -11.3125 11.234375q-7.234375 3.796875 -15.28125 3.796875q-7.953125 0 -14.984375 -3.8125q-7.03125 -3.828125 -11.078125 -11.203125l-67.859375 -118.859375l0 130.32812l-61.140625 0l0 -241.82811q0 -10.5 6.21875 -18.71875q6.234375 -8.21875 16.4375 -11.078125q4.984375 -1.1875 9.84375 -0.84375q4.859375 0.34375 9.421875 2.109375q4.578125 1.75 8.40625 4.984375q3.828125 3.21875 6.4375 7.75l98.296875 170.82811l98.328125 -170.89061q5.421875 -8.984375 14.90625 -12.734375q9.484375 -3.75 19.75 -1.1875q9.9375 2.84375 16.265625 11.046875q6.328125 8.1875 6.328125 18.734375l0 241.82811zm217.8147 0l-61.140625 0l0 -269.03125l61.140625 0l0 269.03125zm307.56995 -27.203125q0 6.53125 -2.46875 12.15625q-2.453125 5.625 -6.578125 9.765625q-4.125 4.125 -9.765381 6.46875q-5.625 2.359375 -11.921875 2.359375q-5.59375 0 -11.390747 -2.125q-5.78125 -2.125 -10.359375 -6.9375l-155.21875 -162.07811l0 167.59373l-61.140625 0l0 -241.82811q0 -9.4375 5.25 -17.015625q5.25 -7.578125 13.484375 -11.34375q8.765625 -3.546875 17.9375 -1.78125q9.171875 1.765625 15.8125 8.625l155.23438 161.93748l0 -167.62498l61.124878 0l0 241.82811zm280.85596 27.203125l-173.64062 0q-7.140625 0 -15.265625 -1.65625q-8.125 -1.671875 -16.09375 -5.203125q-7.953125 -3.546875 -15.328125 -9.21875q-7.359375 -5.671875 -13.078125 -13.78125q-5.703125 -8.125 -9.0625 -18.703125q-3.359375 -10.578125 -3.359375 -23.625l0 -124.656235q0 -7.140625 1.65625 -15.265625q1.671875 -8.125 5.21875 -16.09375q3.546875 -7.984375 9.3125 -15.328125q5.765625 -7.359375 13.859375 -13.046875q8.09375 -5.703125 18.578125 -9.078125q10.5 -3.375 23.5625 -3.375l173.64062 0l0 61.140625l-173.64062 0q-5.90625 0 -8.484375 2.578125q-2.5625 2.5625 -2.5625 8.828125l0 124.29686q0 5.734375 2.65625 8.390625q2.65625 2.65625 8.390625 2.65625l173.64062 0l0 61.140625z" fill-rule="nonzero"/></g></svg>