<svg version="1.1" viewBox="0.0 0.0 2500.0 2500.0" fill="none" stroke="none" stroke-linecap="square" stroke-miterlimit="10" xmlns:xlink="http://www.w3.org/1999/xlink" xmlns="http://www.w3.org/2000/svg"><clipPath id="p.0"><path d="m0 0l2500.0 0l0 2500.0l-2500.0 0l0 -2500.0z" clip-rule="nonzero"/></clipPath><g clip-path="url(#p.0)"><path fill="#000000" fill-opacity="0.0" d="m0 0l2500.0 0l0 2500.0l-2500.0 0z" fill-rule="evenodd"/><path fill="#000000" fill-opacity="0.0" d="m258.9908 366.18896l2241.008 0l0 1767.6221l-2241.008 0z" fill-rule="evenodd"/><path fill="#ffffff" d="m1356.9742 1540.6088q0 13.0 -4.875 24.140625q-4.859375 11.140625 -12.984375 19.265625q-8.125 8.125 -19.265625 12.765625q-11.140625 4.640625 -23.671875 4.640625q-11.140625 0 -22.515747 -4.1875q-11.375 -4.171875 -20.1875 -13.453125l-440.98438 -460.46875l0 468.82812l-120.6875 0l0 -614.125q0 -18.5625 10.4375 -33.640625q10.453125 -15.09375 26.703125 -22.515625q17.171875 -6.96875 35.265625 -3.484375q18.109375 3.484375 31.109375 16.9375l440.96875 460.01562l0 -468.82812l120.68762 0l0 614.1094zm736.2091 51.53125l-435.40613 0q-16.71875 0 -35.984375 -3.9375q-19.25 -3.953125 -38.0625 -12.3125q-18.796875 -8.359375 -35.96875 -21.578125q-17.171875 -13.234375 -30.40625 -32.03125q-13.21875 -18.796875 -21.125 -43.625q-7.890625 -24.84375 -7.890625 -55.9375l0 -326.79688q0 -16.703125 3.9375 -35.96875q3.953125 -19.265625 12.3125 -38.0625q8.359375 -18.796875 21.8125 -35.96875q13.46875 -17.1875 32.265625 -30.40625q18.796875 -13.234375 43.390625 -21.125q24.609375 -7.890625 55.71875 -7.890625l435.40613 0l0 120.6875l-435.40613 0q-23.671875 0 -36.203125 12.53125q-12.53125 12.53125 -12.53125 37.140625l0 325.85938q0 23.203125 12.75 35.96875q12.765625 12.765625 35.984375 12.765625l435.40613 0l0 120.6875z" fill-rule="nonzero"/><path fill="#000000" fill-opacity="0.0" d="m-3.4514436E-4 366.18896l954.26776 0l0 1767.6221l-954.26776 0z" fill-rule="evenodd"/><path fill="#ffffff" d="m420.2034 799.4173c-63.254578 300.3885 63.25461 600.7769 0 901.16534l113.85831 0c63.254578 -300.38843 -63.25461 -600.77686 0 -901.16534z" fill-rule="evenodd"/><path stroke="#ffffff" stroke-width="1.0" stroke-linejoin="round" stroke-linecap="butt" d="m420.2034 799.4173c-63.254578 300.3885 63.25461 600.7769 0 901.16534l113.85831 0c63.254578 -300.38843 -63.25461 -600.77686 0 -901.16534z" fill-rule="evenodd"/></g></svg>